<svg width="1024" height="1024" viewBox="0 0 1024 1024" fill="none" xmlns="http://www.w3.org/2000/svg">
<rect width="1024" height="1024" fill="white"/>
<path d="M491 256.701C473.5 259.501 458.3 264.701 446.6 271.701C428.5 282.501 412 298.901 401.2 316.701C395.6 325.901 390.6 338.701 387.8 350.501C384.9 363.001 384.2 388.001 386.4 400.601C392.8 437.401 414.9 468.601 448.2 487.701C481 506.501 524.7 508.101 560.6 491.901C572.6 486.501 583.9 478.201 595.6 466.601C621.8 440.401 633.3 410.601 631.7 373.801C630.2 341.101 619.1 315.401 596.3 292.301C578.1 273.801 555.4 261.901 530.3 257.501C522.4 256.101 497.6 255.601 491 256.701Z" fill="#565CD4"/>
<path d="M397 503.601C384.4 505.501 376 508.001 365.8 513.101C346.3 522.701 331.6 538.601 320 562.501C305.4 592.601 298 629.501 298 673.101C298 699.501 299.9 708.901 308.3 725.501C311.4 731.601 314.6 735.701 321.5 742.601C331.3 752.501 339.8 758.101 351.7 762.301C368.2 768.301 362.7 768.101 515.6 767.801L655.5 767.501L664 764.901C674.8 761.501 680.5 759.001 687.7 754.401C704.4 743.801 716.7 727.001 722 708.001C725.2 696.101 726.1 681.901 725 660.001C720 562.001 682.8 506.801 619.5 503.301C605.9 502.601 605.7 502.601 582.4 517.601C564.4 529.101 551.9 534.801 535.3 539.101C522.8 542.401 500.4 542.401 488 539.201C470.3 534.601 458.4 529.101 440.4 517.401C433.8 513.101 425.7 508.101 422.2 506.301C416.4 503.301 415.1 503.001 407.7 503.101C403.2 503.201 398.4 503.401 397 503.601Z" fill="#565CD4"/>
</svg>
